<svg width="213" height="249" viewBox="0 0 213 249" fill="none" xmlns="http://www.w3.org/2000/svg">
<path d="M21.1147 242.61V245.61H24.1147H54.1642H57.1642V242.61V169.547H109.568H109.583H109.597H109.612H109.627H109.641H109.656H109.671H109.685H109.7H109.715H109.729H109.744H109.759H109.773H109.788H109.803H109.817H109.832H109.846H109.861H109.876H109.89H109.905H109.92H109.934H109.949H109.963H109.978H109.993H110.007H110.022H110.036H110.051H110.066H110.08H110.095H110.109H110.124H110.138H110.153H110.168H110.182H110.197H110.211H110.226H110.24H110.255H110.27H110.284H110.299H110.313H110.328H110.342H110.357H110.371H110.386H110.401H110.415H110.43H110.444H110.459H110.473H110.488H110.502H110.517H110.531H110.546H110.56H110.575H110.589H110.604H110.618H110.633H110.647H110.662H110.676H110.691H110.705H110.72H110.734H110.749H110.763H110.778H110.792H110.807H110.821H110.836H110.85H110.864H110.879H110.893H110.908H110.922H110.937H110.951H110.966H110.98H110.994H111.009H111.023H111.038H111.052H111.067H111.081H111.096H111.11H111.124H111.139H111.153H111.168H111.182H111.196H111.211H111.225H111.24H111.254H111.268H111.283H111.297H111.312H111.326H111.34H111.355H111.369H111.383H111.398H111.412H111.427H111.441H111.455H111.47H111.484H111.498H111.513H111.527H111.541H111.556H111.57H111.584H111.599H111.613H111.627H111.642H111.656H111.67H111.685H111.699H111.713H111.728H111.742H111.756H111.771H111.785H111.799H111.814H111.828H111.842H111.857H111.871H111.885H111.899H111.914H111.928H111.942H111.957H111.971H111.985H111.999H112.014H112.028H112.042H112.056H112.071H112.085H112.099H112.113H112.128H112.142H112.156H112.17H112.185H112.199H112.213H112.227H112.242H112.256H112.27H112.284H112.299H112.313H112.327H112.341H112.355H112.37H112.384H112.398H112.412H112.426H112.441H112.455H112.469H112.483H112.497H112.512H112.526H112.54H112.554H112.568H112.582H112.597H112.611H112.625H112.639H112.653H112.667H112.682H112.696H112.71H112.724H112.738H112.752H112.767H112.781H112.795H112.809H112.823H112.837H112.851H112.865H112.88H112.894H112.908H112.922H112.936H112.95H112.964H112.978H112.993H113.007H113.021H113.035H113.049H113.063H113.077H113.091H113.105H113.119H113.133H113.147H113.162H113.176H113.19H113.204H113.218H113.232H113.246H113.26H113.274H113.288H113.302H113.316H113.33H113.342L130.056 203.571L130.091 203.642L130.13 203.711C134.295 211.165 139.602 217.16 146.07 221.62L146.089 221.634L146.109 221.647C146.955 222.211 147.815 222.739 148.692 223.231C152.632 229.617 157.486 234.831 163.269 238.819L163.288 238.833L163.308 238.846C170.101 243.375 177.89 245.61 186.57 245.61H206.916H209.916V242.61V216.003V213.003H206.916H192.717V198.805V195.805H189.717H175.346L157.761 160.165C169.46 154.528 178.873 146.351 185.939 135.653C193.804 123.854 197.708 110.328 197.708 95.1793C197.708 80.3055 194.255 67.2182 187.24 56.0335C182.01 47.5393 175.418 40.5044 167.481 34.947C160.843 25.5156 152.331 18.0983 141.974 12.7243C130.241 6.4273 117.233 3.29999 103.012 3.29999H6.91602H3.91602V6.29999V225.411V228.411H6.91602H21.1147V242.61ZM98.9427 119.742H57.1642V53.105H116.454C124.801 53.105 132.382 54.7912 139.246 58.1248C139.627 58.3099 140.004 58.4995 140.376 58.6935C143.07 64.1125 144.46 70.5132 144.46 77.9806C144.46 86.891 142.387 94.329 138.379 100.437L138.36 100.465L138.343 100.493C134.491 106.656 129.099 111.392 122.077 114.708L122.062 114.715L122.047 114.722C115.193 118.051 107.51 119.742 98.9427 119.742Z" fill="#021963" stroke="#FCFEFB" stroke-width="6"/>
<path d="M24.1147 242.61V23.4987H120.211C133.983 23.4987 146.504 26.5245 157.773 32.5761C169.041 38.4191 178.014 46.7662 184.692 57.6174C191.37 68.26 194.708 80.7806 194.708 95.1793C194.708 109.787 190.952 122.725 183.44 133.993C176.136 145.053 166.224 153.296 153.703 158.722L177.179 206.3C178.849 209.639 180.623 212.143 182.501 213.812C184.588 215.273 187.509 216.003 191.265 216.003H206.916V242.61H186.57C178.432 242.61 171.232 240.523 164.972 236.35C158.92 232.176 153.912 226.542 149.947 219.447L123.654 165.921C121.567 166.13 119.272 166.338 116.767 166.547C114.472 166.547 112.072 166.547 109.568 166.547H54.1642V242.61H24.1147ZM54.1642 139.941H116.141C125.115 139.941 133.253 138.167 140.557 134.619C148.069 131.072 153.912 125.959 158.086 119.282C162.468 112.604 164.659 104.57 164.659 95.1793C164.659 85.5802 162.468 77.4417 158.086 70.7641C153.703 64.0864 147.86 58.9738 140.557 55.4263C133.253 51.8788 125.219 50.105 116.454 50.105H54.1642V139.941Z" fill="#2A9D8F"/>
<path d="M6.91602 225.411V6.29999H103.012C116.785 6.29999 129.305 9.32581 140.574 15.3775C151.842 21.2204 160.816 29.5675 167.493 40.4187C174.171 51.0613 177.51 63.5819 177.51 77.9806C177.51 92.5881 173.754 105.526 166.241 116.795C158.937 127.855 149.025 136.097 136.505 141.523L159.981 189.101C161.65 192.44 163.424 194.944 165.302 196.614C167.389 198.074 170.31 198.805 174.067 198.805H189.717V225.411H169.371C161.233 225.411 154.034 223.324 147.773 219.151C141.722 214.977 136.713 209.343 132.748 202.248L106.455 148.722C104.368 148.931 102.073 149.14 99.5687 149.348C97.2733 149.348 94.8735 149.348 92.3694 149.348H36.9655V225.411H6.91602ZM36.9655 122.742H98.9427C107.916 122.742 116.054 120.968 123.358 117.421C130.87 113.873 136.713 108.761 140.887 102.083C145.269 95.4052 147.46 87.3711 147.46 77.9806C147.46 68.3815 145.269 60.2431 140.887 53.5654C136.505 46.8877 130.662 41.7751 123.358 38.2276C116.054 34.6801 108.02 32.9064 99.2557 32.9064H36.9655V122.742Z" fill="#021963"/>
</svg>
